<svg version="1.2" baseProfile="tiny-ps" xmlns="http://www.w3.org/2000/svg" viewBox="0 0 73 65" width="73" height="65">
	<title>logo-svg</title>
	<style>
		tspan { white-space:pre }
		.shp0 { fill: #ffffff } 
	</style>
	<g id="Layer">
		<path id="Layer" fill-rule="evenodd" class="shp0" d="M30.3 10.7C31.2 11.6 33.6 12.3 35.5 12.3C37.4 12.3 39.8 11.6 40.7 10.7C43.2 8.5 47.8 6.9 48.5 8C48.8 8.5 48 9.2 46.8 9.5C45.5 9.9 43.5 10.8 42.3 11.6C40.3 12.8 40.2 13.3 41.2 15.5C41.8 16.9 44.4 19.3 46.9 20.9C61.2 29.6 71.2 47.7 65.3 54.2C61.3 58.7 50 55.3 40.4 46.7L35.5 42.2L30.6 46.7C21.3 55.1 10.4 58.5 5.8 54.3C-0.6 48.5 9.7 29.7 24.1 20.9C26.6 19.3 29.2 16.9 29.8 15.5C30.9 13.2 30.7 12.8 27.7 11C26 9.9 23.9 9 23.2 9C22.5 9 22.1 8.6 22.5 8C23.2 6.9 27.7 8.4 30.3 10.7ZM36.8 14C36.2 14 36.3 14.7 37 15.5C37.7 16.3 38.7 17 39.2 17C39.8 17 39.7 16.3 39 15.5C38.3 14.7 37.3 14 36.8 14ZM30.6 21.2C28.4 24.4 28.6 24.8 32.5 25.6C39.3 26.8 43.4 23.8 39.8 20.2C37.7 18.1 32.3 18.7 30.6 21.2ZM26.9 21.5C25.5 20.2 13.9 31 9.9 37.1C6.2 43 6.1 44.3 9.8 42.8C15.4 40.4 19 36.8 23 29.4C25.3 25.3 27 21.7 26.9 21.5ZM48.1 23.7C43 20.2 43 20.7 48.6 30.7C52 36.9 55.8 40.5 61.3 42.8C63.4 43.7 64 43.7 64 42.7C64 41.1 59.5 34.3 55.6 30.2C53.9 28.3 50.5 25.4 48.1 23.7ZM28 27.1L27.5 23.5L24.6 29C23 32 20.8 35.8 19.7 37.4C17.6 40.3 16.3 48.6 17.4 51.5C17.9 53 18.4 52.9 21.9 50.9C24.1 49.7 27.7 46.8 30 44.5L34.1 40.4L31.3 35.5C29.8 32.8 28.4 29 28 27.1ZM44 24.5C43.4 24.1 43 25.1 43 26.7C43 28.2 41.6 31.9 40 34.9L37 40.4L41 44.5C43.3 46.8 46.9 49.7 49.1 50.9C52.6 52.9 53.1 53 53.6 51.5C55.1 47.8 53.2 40.4 49.1 33.8C46.9 30.1 45 26.6 45 26.1C45 25.5 44.6 24.8 44 24.5ZM35.5 27.5C29.5 27.5 28 28.6 33.3 29.1C37.2 29.6 41 29.1 41 28.2C41 27.8 38.5 27.5 35.5 27.5ZM35.5 31.8C33.6 31.6 32 31.8 32 32.2C32 32.6 33.6 33 35.5 33C37.4 33 39 32.8 39 32.6C39 32.4 37.4 32 35.5 31.8ZM35.5 35.3C34.6 35.3 34.1 35.7 34.2 36.2C34.4 36.7 35 37.1 35.5 37.1C36 37.1 36.6 36.7 36.8 36.2C36.9 35.7 36.4 35.3 35.5 35.3ZM15.8 41C14.4 41.3 7.2 45.5 6.4 46.6C3.3 50.5 8.2 55.7 13.6 54.4C15.8 53.8 16 53.3 16 47.4C16 43.9 15.9 41 15.8 41ZM60 43.5L55 41L55 47.5C55 53.4 55.2 54 57.3 54.5C58.5 54.9 60.8 54.6 62.3 54.1C64.5 53.2 65 52.4 65 49.5C65 46.3 64.6 45.8 60 43.5Z" />
	</g>
</svg>